<?xml version="1.0" encoding="UTF-8"?>
<!-- Created with Inkscape (http://www.inkscape.org/) -->
<svg width="35.556mm" height="38.835mm" version="1.1" viewBox="0 0 35.556 38.835" xmlns="http://www.w3.org/2000/svg">
 <g transform="translate(135.5 -1.5631)">
  <path d="m-127.59 1.5631c-2.3415 0-4.2262 1.885-4.2262 4.2265v30.382c0 2.3415 1.8848 4.2265 4.2262 4.2265h23.413c2.3415 0 4.2265-1.885 4.2265-4.2265v-26.022l-8.5865-8.5865z" style="fill-rule:evenodd;fill:#c4c7e9;paint-order:normal"/>
  <rect x="-135.5" y="11.692" width="22.622" height="22.622" rx="5.8839" ry="5.8839" style="fill-rule:evenodd;fill:#6a6dbe;paint-order:stroke markers fill"/>
  <path d="m-108.53 1.5631v8.5865h8.5865" style="fill-rule:evenodd;fill:#8c98d4;paint-order:normal"/>
  <g transform="translate(-156.42 -162.05)" style="stroke-width:1.9">
   <path d="m28.253 181.82-2.6452 3.238" style="fill-rule:evenodd;fill:#dce2ea;stroke-linecap:round;stroke-linejoin:round;stroke-width:1.9;stroke:#fff"/>
   <path d="m28.253 188.3-2.6452-3.238" style="fill-rule:evenodd;fill:#dce2ea;stroke-linecap:round;stroke-linejoin:round;stroke-width:1.9;stroke:#fff"/>
   <path d="m36.211 181.82 2.6451 3.238" style="fill-rule:evenodd;fill:#dce2ea;stroke-linecap:round;stroke-linejoin:round;stroke-width:1.9;stroke:#fff"/>
   <path d="m36.211 188.3 2.6451-3.238" style="fill-rule:evenodd;fill:#dce2ea;stroke-linecap:round;stroke-linejoin:round;stroke-width:1.9;stroke:#fff"/>
   <path d="m30.569 188.3 3.3264-6.476" style="fill-rule:evenodd;fill:#dce2ea;stroke-linecap:round;stroke-linejoin:round;stroke-width:1.9;stroke:#fff"/>
  </g>
 </g>
</svg>
