<?xml version="1.0" encoding="UTF-8"?>
<!-- Created with Inkscape (http://www.inkscape.org/) -->
<svg width="22.622mm" height="22.622mm" version="1.1" viewBox="0 0 22.622 22.622" xmlns="http://www.w3.org/2000/svg">
 <g transform="translate(-10.407 -79.792)">
  <g style="fill-rule:evenodd;fill:#fff;paint-order:stroke markers fill;stroke-linecap:round;stroke-linejoin:round;stroke-width:17.295" aria-label="W">
   <g transform="translate(-100.24 -154.51)">
    <g transform="translate(45.989)">
     <rect x="64.654" y="234.3" width="22.622" height="22.622" rx="5.8839" ry="5.8839" style="fill-rule:evenodd;fill:#2a9f7b;paint-order:stroke markers fill"/>
    </g>
    <g transform="translate(48.962 59.97)" style="stroke:#fff">
     <path d="m69.438 179.86c-1.2212 0-2.2244 1.0051-2.2247 2.2262v7.1303h5.2e-4c0.01327 1.2103 1.011 2.2004 2.2242 2.2004h1.1782v5.2e-4h4.8302v-5.2e-4h1.0971c1.2132 0 2.2129-0.99011 2.2262-2.2004h5.2e-4v-7.1303c-2.8e-4 -1.2211-1.0056-2.2262-2.2267-2.2262zm0 1.3457h1.864v1e-3h1.017v2.0583h-3.76v-1.1782c0-0.49954 0.37947-0.88108 0.87901-0.88108zm6.0084 0h1.0971c0.49936 0 0.88082 0.38128 0.88109 0.88056v1.1787h-3.76v-2.0583h1.7818zm-6.8874 3.4034h3.76v2.0583h-3.76zm5.1056 0h3.76v2.0583h-3.76zm-5.1056 3.4039h3.76v2.0578h-2.881c-0.49954 0-0.87901-0.37897-0.87901-0.8785zm5.1056 0h3.76v1.1793c0 0.49953-0.38156 0.8785-0.88109 0.8785h-2.8789z" style="-inkscape-stroke:none;color:#000000;fill-rule:evenodd;fill:#fff;stroke:none"/>
    </g>
   </g>
  </g>
 </g>
</svg>
