<?xml version="1.0" encoding="UTF-8"?>
<!-- Created with Inkscape (http://www.inkscape.org/) -->
<svg width="22.622mm" height="22.622mm" version="1.1" viewBox="0 0 22.622 22.622" xmlns="http://www.w3.org/2000/svg">
 <g transform="translate(-10.407 -79.792)">
  <rect x="10.407" y="79.792" width="22.622" height="22.622" rx="5.8839" ry="5.8839" style="fill-rule:evenodd;fill:#4a81c9"/>
  <g style="fill-rule:evenodd;fill:#fff;paint-order:stroke markers fill;stroke-linecap:round;stroke-linejoin:round;stroke-width:17.295" aria-label="W">
   <path d="m29.606 85.143-2.9691 11.648h-2.806l-1.5824-6.1177q-0.04894-0.17945-0.13051-0.53836-0.06526-0.35891-0.16314-0.78307-0.08157-0.42416-0.14682-0.79938-0.06526-0.39153-0.09788-0.60361-0.01631 0.21208-0.09788 0.60361-0.06526 0.37522-0.14683 0.79938-0.08157 0.40785-0.16314 0.78307-0.08157 0.35891-0.13051 0.55467l-1.5661 6.1014h-2.806l-2.9691-11.648h2.4308l1.4846 6.3624q0.09788 0.37522 0.21208 0.94621 0.1142 0.57099 0.21208 1.142 0.09788 0.57099 0.14682 0.96252 0.04894-0.40785 0.14682-0.96252 0.09788-0.57099 0.19577-1.093 0.1142-0.53836 0.19577-0.83201l1.6966-6.5256h2.3329l1.6966 6.5256q0.08157 0.27734 0.17945 0.8157 0.1142 0.53836 0.21208 1.1093 0.09788 0.57099 0.14682 0.96252 0.04894-0.40785 0.14682-0.96252 0.09788-0.57099 0.21208-1.142 0.13051-0.57099 0.21208-0.94621l1.4846-6.3624z"/>
  </g>
 </g>
</svg>
