<?xml version="1.0" encoding="UTF-8"?>
<!-- Created with Inkscape (http://www.inkscape.org/) -->
<svg width="35.556mm" height="38.835mm" version="1.1" viewBox="0 0 35.556 38.835" xmlns="http://www.w3.org/2000/svg">
 <g transform="translate(112.94 -29.656)">
  <path d="m-105.02 29.656c-2.3415 0-4.2262 1.885-4.2262 4.2265v30.382c0 2.3415 1.8847 4.2265 4.2262 4.2265h23.413c2.3415 0 4.2265-1.885 4.2265-4.2265v-26.022l-8.5865-8.5865z" style="fill-rule:evenodd;fill:#bae0f2;paint-order:normal"/>
  <path d="m-94.882 46.986h10.916" style="fill-rule:evenodd;fill:#9fd3ed;paint-order:normal;stroke-linecap:round;stroke-linejoin:round;stroke-width:2.3036;stroke:#7cc3e6"/>
  <path d="m-88.877 46.701 10.479 6.0498" style="-inkscape-stroke:none;color:#000000;fill-rule:evenodd;fill:#c9d2e1;stroke-linecap:round;stroke-linejoin:round;stroke-width:3.2256"/>
  <path d="m-98.733 51.599h14.767" style="fill-rule:evenodd;fill:#9fd3ed;paint-order:normal;stroke-linecap:round;stroke-linejoin:round;stroke-width:2.3036;stroke:#7cc3e6"/>
  <path d="m-85.969 29.656v8.5865h8.5864" style="fill-rule:evenodd;fill:#7ac4e5;paint-order:normal"/>
  <path d="m-94.882 56.213h10.916" style="fill-rule:evenodd;fill:#9fd3ed;paint-order:normal;stroke-linecap:round;stroke-linejoin:round;stroke-width:2.3036;stroke:#7cc3e6"/>
  <rect x="-112.94" y="39.785" width="22.622" height="22.622" rx="5.8839" ry="5.8839" style="fill-rule:evenodd;fill:#3e9ec7;paint-order:stroke markers fill"/>
  <path d="m-106.07 46.282c-0.9797 0-1.7685 0.78868-1.7685 1.7684v6.0902c0 0.9797 0.78881 1.7685 1.7685 1.7685h8.8919c0.97972 0 1.7684-0.78879 1.7684-1.7685v-6.0902c0-0.9797-0.78866-1.7684-1.7684-1.7684zm-0.0222 1.9344a0.6877 0.6877 0 0 1 0.34382 0.0921l4.1243 2.3812 4.1243-2.3812a0.6877 0.6877 0 0 1 0.9395 0.252 0.6877 0.6877 0 0 1-0.25212 0.93949l-4.4677 2.5792a0.6877 0.6877 0 0 1-0.0144 7e-3 0.6877 0.6877 0 0 1-0.0456 0.0221 0.6877 0.6877 0 0 1-0.0437 0.0187 0.6877 0.6877 0 0 1-0.0474 0.0152 0.6877 0.6877 0 0 1-0.047 0.0127 0.6877 0.6877 0 0 1-0.0485 8e-3 0.6877 0.6877 0 0 1-0.048 5e-3 0.6877 0.6877 0 0 1-0.0493 1e-3 0.6877 0.6877 0 0 1-0.0494-1e-3 0.6877 0.6877 0 0 1-0.0477-5e-3 0.6877 0.6877 0 0 1-0.049-8e-3 0.6877 0.6877 0 0 1-0.0463-0.0123 0.6877 0.6877 0 0 1-0.048-0.0154 0.6877 0.6877 0 0 1-0.0437-0.0187 0.6877 0.6877 0 0 1-0.0456-0.0221 0.6877 0.6877 0 0 1-0.0143-7e-3l-4.4678-2.5792a0.6877 0.6877 0 0 1-0.25199-0.93951 0.6877 0.6877 0 0 1 0.41762-0.32057 0.6877 0.6877 0 0 1 0.17794-0.0236z" style="fill-rule:evenodd;fill:#fff"/>
 </g>
</svg>
