<?xml version="1.0" encoding="UTF-8"?>
<!-- Created with Inkscape (http://www.inkscape.org/) -->
<svg width="22.622mm" height="22.622mm" version="1.1" viewBox="0 0 22.622 22.622" xmlns="http://www.w3.org/2000/svg">
 <g transform="translate(-10.407 -79.792)">
  <g style="fill-rule:evenodd;fill:#fff;paint-order:stroke markers fill;stroke-linecap:round;stroke-linejoin:round;stroke-width:17.295" aria-label="W">
   <g transform="translate(-100.24 -154.51)">
    <g transform="translate(6.5107e-6 -90.023)">
     <rect x="110.64" y="324.32" width="22.622" height="22.622" rx="5.8839" ry="5.8839" style="fill-rule:evenodd;fill:#48a3ca;paint-order:stroke markers fill"/>
     <path d="m117.51 330.82c-0.9797 0-1.7685 0.78868-1.7685 1.7684v6.0902c0 0.9797 0.78881 1.7685 1.7685 1.7685h8.8919c0.97972 0 1.7684-0.78879 1.7684-1.7685v-6.0902c0-0.9797-0.78866-1.7684-1.7684-1.7684zm-0.0222 2.4636c0.1207-1e-5 0.23928 0.0318 0.34382 0.0921l4.1243 2.3812 4.1243-2.3812c0.32901-0.18992 0.74969-0.0771 0.9395 0.252 0.18989 0.32904 0.077 0.74972-0.25212 0.93949l-4.4677 2.5792c-5e-3 2e-3 -0.01 5e-3 -0.0144 7e-3 -0.0149 8e-3 -0.0301 0.0153-0.0456 0.0221-0.0143 7e-3 -0.0289 0.013-0.0437 0.0187-0.0156 6e-3 -0.0314 0.0107-0.0474 0.0152-0.0155 5e-3 -0.0312 9e-3 -0.047 0.0127-0.0161 3e-3 -0.0322 6e-3 -0.0485 8e-3 -0.0159 2e-3 -0.0319 4e-3 -0.048 5e-3 -0.0164 9.2e-4 -0.0329 1e-3 -0.0493 1e-3 -0.0165 2.6e-4 -0.0329-8e-5 -0.0494-1e-3 -0.016-1e-3 -0.0319-3e-3 -0.0477-5e-3 -0.0164-2e-3 -0.0328-5e-3 -0.049-8e-3 -0.0156-4e-3 -0.031-8e-3 -0.0463-0.0123-0.0162-5e-3 -0.0322-0.01-0.048-0.0154-0.0148-6e-3 -0.0294-0.012-0.0437-0.0187-0.0155-7e-3 -0.0307-0.0142-0.0456-0.0221-5e-3 -2e-3 -0.01-5e-3 -0.0143-7e-3l-4.4678-2.5792c-0.32908-0.18981-0.44191-0.6105-0.25199-0.93951 0.0912-0.15802 0.2414-0.27334 0.41762-0.32057 0.058-0.0156 0.11785-0.0235 0.17794-0.0236z" style="fill-rule:evenodd;fill:#fff"/>
    </g>
   </g>
  </g>
 </g>
</svg>
