<?xml version="1.0" encoding="UTF-8"?>
<!-- Created with Inkscape (http://www.inkscape.org/) -->
<svg width="35.556mm" height="38.835mm" version="1.1" viewBox="0 0 35.556 38.835" xmlns="http://www.w3.org/2000/svg">
 <path d="m7.9164 0c-2.3415 0-4.2262 1.885-4.2262 4.2265v30.382c0 2.3415 1.8847 4.2265 4.2262 4.2265h23.413c2.3415 0 4.2265-1.885 4.2265-4.2265v-26.022l-8.5865-8.5865z" style="fill-rule:evenodd;fill:#bae0f2;paint-order:normal"/>
 <path d="m18.057 17.33h10.916" style="fill-rule:evenodd;fill:#9fd3ed;paint-order:normal;stroke-linecap:round;stroke-linejoin:round;stroke-width:2.3036;stroke:#7cc3e6"/>
 <path d="m24.061 17.045 10.479 6.0498" style="-inkscape-stroke:none;color:#000000;fill-rule:evenodd;fill:#c9d2e1;stroke-linecap:round;stroke-linejoin:round;stroke-width:3.2256"/>
 <path d="m14.206 21.943h14.767" style="fill-rule:evenodd;fill:#9fd3ed;paint-order:normal;stroke-linecap:round;stroke-linejoin:round;stroke-width:2.3036;stroke:#7cc3e6"/>
 <path d="m26.969 0v8.5865h8.5864" style="fill-rule:evenodd;fill:#7ac4e5;paint-order:normal"/>
 <path d="m18.057 26.556h10.916" style="fill-rule:evenodd;fill:#9fd3ed;paint-order:normal;stroke-linecap:round;stroke-linejoin:round;stroke-width:2.3036;stroke:#7cc3e6"/>
 <rect y="10.129" width="22.622" height="22.622" rx="5.8839" ry="5.8839" style="fill-rule:evenodd;fill:#3e9ec7;paint-order:stroke markers fill"/>
 <path d="m6.8649 16.626c-0.9797 0-1.7685 0.78868-1.7685 1.7684v6.0902c0 0.9797 0.78881 1.7685 1.7685 1.7685h8.8919c0.97972 0 1.7684-0.78879 1.7684-1.7685v-6.0902c0-0.9797-0.78866-1.7684-1.7684-1.7684zm-0.0222 2.4635c0.1207-6e-6 0.23928 0.03176 0.34382 0.0921l4.1243 2.3812 4.1243-2.3812c0.32901-0.18992 0.74969-0.07708 0.9395 0.252 0.18989 0.32904 0.077 0.74972-0.25212 0.93949l-4.4677 2.5792c-5e-3 0.0024-0.01 0.0047-0.0144 7e-3 -0.0149 0.0079-0.0301 0.0153-0.0456 0.0221-0.0144 0.0067-0.0289 0.01297-0.0437 0.0187-0.0156 0.0056-0.0314 0.01071-0.0474 0.0152-0.0155 0.0048-0.0312 9e-3 -0.047 0.0127-0.0161 0.0032-0.0322 0.0059-0.0485 8e-3 -0.0159 0.0022-0.032 0.0039-0.048 5e-3 -0.0164 9.22e-4 -0.0329 0.0013-0.0493 1e-3 -0.0165 2.58e-4 -0.0329-7.5e-5 -0.0494-1e-3 -0.016-0.0011-0.0319-0.0028-0.0477-5e-3 -0.0164-0.0021-0.0328-0.0047-0.049-8e-3 -0.0156-0.0036-0.031-0.0077-0.0463-0.0123-0.0162-0.0045-0.0322-0.0097-0.048-0.0154-0.0148-0.0057-0.0293-0.01196-0.0437-0.0187-0.0155-0.0068-0.0307-0.01418-0.0456-0.0221-5e-3 -0.0023-0.01-0.0046-0.0143-7e-3l-4.4678-2.5792c-0.32908-0.18981-0.44191-0.6105-0.25199-0.93951 0.0912-0.15802 0.2414-0.27334 0.41762-0.32057 0.058-0.01561 0.11785-0.02354 0.17794-0.0236z" style="fill-rule:evenodd;fill:#fff"/>
</svg>
