<?xml version="1.0" encoding="UTF-8"?>
<!-- Created with Inkscape (http://www.inkscape.org/) -->
<svg width="35.556mm" height="38.835mm" version="1.1" viewBox="0 0 35.556 38.835" xmlns="http://www.w3.org/2000/svg">
 <path d="m7.9164 2e-6c-2.3415 0-4.2262 1.885-4.2262 4.2265v30.382c0 2.3415 1.8847 4.2265 4.2262 4.2265h23.413c2.3415 0 4.2265-1.885 4.2265-4.2265v-26.022l-8.5865-8.5865z" style="fill-rule:evenodd;fill:#bfd5f3;paint-order:normal"/>
 <path d="m26.969 0v8.5865h8.5864" style="fill-rule:evenodd;fill:#9dbfed;paint-order:normal"/>
 <path d="m17.931 15.935c-1.1203 0-2.0222 1.385-2.0222 2.5053v6.4807c0 1.1202 0.90198 2.0222 2.0222 2.0222h10.168c1.1203 0 2.0221-0.90197 2.0221-2.0222v-6.964c0-1.1203-0.90183-2.0221-2.0221-2.0221zm-0.02538 2.6951c0.13801-1e-5 0.27361 0.0364 0.39314 0.10529l4.716 2.7228 4.716-2.7228c0.37622-0.21715 0.85724-0.0881 1.0743 0.28815 0.21714 0.37626 0.08803 0.8573-0.28828 1.0743l-5.1087 2.9493c-0.0055 3e-3 -0.01096 6e-3 -0.01644 8e-3 -0.01698 9e-3 -0.03443 0.0174-0.05205 0.0253-0.01644 8e-3 -0.03315 0.0148-0.05004 0.0214-0.0179 7e-3 -0.03598 0.0122-0.05424 0.0174-0.01772 6e-3 -0.03561 0.0102-0.0537 0.0144-0.01836 4e-3 -0.03689 7e-3 -0.05552 0.01-0.01826 3e-3 -0.03652 5e-3 -0.05488 7e-3 -0.01881 9.1e-4 -0.03771 2e-3 -0.05653 2e-3 -0.0189 1.5e-4 -0.03771-3.6e-4 -0.05653-2e-3 -0.01826-2e-3 -0.03644-4e-3 -0.05461-7e-3 -0.01881-3e-3 -0.03753-6e-3 -0.05606-0.01-0.01781-5e-3 -0.03543-9e-3 -0.05287-0.014-0.01853-6e-3 -0.0368-0.011-0.05488-0.0175-0.01689-7e-3 -0.0336-0.0137-0.05004-0.0213-0.01762-8e-3 -0.03497-0.0162-0.05205-0.0253-0.0055-3e-3 -0.01096-6e-3 -0.01644-8e-3l-5.1087-2.9493c-0.37629-0.21703-0.50532-0.69806-0.28815-1.0743 0.10425-0.1807 0.27603-0.31256 0.47753-0.36656 0.06639-0.0178 0.13476-0.0268 0.20347-0.0268z" style="fill-rule:evenodd;fill:#79a4dd"/>
 <rect x="-7.1054e-15" y="10.129" width="22.622" height="22.622" rx="5.8839" ry="5.8839" style="fill-rule:evenodd;fill:#3878cd;paint-order:stroke markers fill"/>
 <text x="4.4550171" y="27.136454" style="fill-rule:evenodd;fill:#ffffff;font-family:'Noto Sans';font-size:16.314px;font-weight:bold;paint-order:stroke markers fill;stroke-linecap:round;stroke-linejoin:round;stroke-width:17.295" xml:space="preserve"><tspan x="4.4550171" y="27.136454" style="fill:#ffffff;stroke-width:17.295">O</tspan></text>
</svg>
