<?xml version="1.0" encoding="UTF-8"?>
<!-- Created with Inkscape (http://www.inkscape.org/) -->
<svg width="35.556mm" height="38.835mm" version="1.1" viewBox="0 0 35.556 38.835" xmlns="http://www.w3.org/2000/svg">
 <g transform="translate(-26.205 -1.9921)">
  <path d="m34.121 1.9921c-2.3415 0-4.2262 1.885-4.2262 4.2265v30.382c0 2.3415 1.8847 4.2265 4.2262 4.2265h23.413c2.3415 0 4.2265-1.885 4.2265-4.2265v-26.022l-8.5865-8.5865z" style="fill-rule:evenodd;fill:#bfd5f3;paint-order:normal"/>
  <path d="m53.174 1.9921v8.5865h8.5864" style="fill-rule:evenodd;fill:#9dbfed;paint-order:normal"/>
  <path d="m44.339 17.236c-1.2268 0-2.2146 0.9876-2.2146 2.2144v7.6263c0 1.2268 0.98777 2.2146 2.2146 2.2146h11.135c1.2268 0 2.2144-0.98776 2.2144-2.2146v-7.6263c0-1.2268-0.98761-2.2144-2.2144-2.2144zm-0.0278 2.4223a0.86116 0.86116 0 0 1 0.43053 0.11531l5.1646 2.9818 5.1646-2.9818a0.86116 0.86116 0 0 1 1.1765 0.31555 0.86116 0.86116 0 0 1-0.3157 1.1765l-5.5946 3.2298a0.86116 0.86116 0 0 1-0.018 0.0087 0.86116 0.86116 0 0 1-0.057 0.02766 0.86116 0.86116 0 0 1-0.0548 0.02341 0.86116 0.86116 0 0 1-0.0594 0.01908 0.86116 0.86116 0 0 1-0.0588 0.01579 0.86116 0.86116 0 0 1-0.0608 0.01023 0.86116 0.86116 0 0 1-0.0601 0.0069 0.86116 0.86116 0 0 1-0.0619 0.0017 0.86116 0.86116 0 0 1-0.0619-0.0017 0.86116 0.86116 0 0 1-0.0598-0.0069 0.86116 0.86116 0 0 1-0.0614-0.01035 0.86116 0.86116 0 0 1-0.0579-0.01539 0.86116 0.86116 0 0 1-0.0601-0.0192 0.86116 0.86116 0 0 1-0.0548-0.02341 0.86116 0.86116 0 0 1-0.057-0.02766 0.86116 0.86116 0 0 1-0.018-0.0087l-5.5946-3.2298a0.86116 0.86116 0 0 1-0.31556-1.1765 0.86116 0.86116 0 0 1 0.52295-0.40144 0.86116 0.86116 0 0 1 0.22282-0.02945z" style="fill-rule:evenodd;fill:#6a9bda"/>
  <rect x="26.205" y="12.121" width="22.622" height="22.622" rx="5.8839" ry="5.8839" style="fill-rule:evenodd;fill:#3878cd;paint-order:stroke markers fill"/>
  <text x="30.659937" y="29.12855" style="fill-rule:evenodd;fill:#ffffff;font-family:'Noto Sans';font-size:16.314px;font-weight:bold;paint-order:stroke markers fill;stroke-linecap:round;stroke-linejoin:round;stroke-width:17.295" xml:space="preserve"><tspan x="30.659937" y="29.12855" style="fill:#ffffff;stroke-width:17.295">O</tspan></text>
 </g>
</svg>
