<?xml version="1.0" encoding="UTF-8"?>
<!-- Created with Inkscape (http://www.inkscape.org/) -->
<svg width="22.622mm" height="22.622mm" version="1.1" viewBox="0 0 22.622 22.622" xmlns="http://www.w3.org/2000/svg">
 <g transform="translate(-10.407 -79.792)">
  <g style="fill-rule:evenodd;fill:#fff;paint-order:stroke markers fill;stroke-linecap:round;stroke-linejoin:round;stroke-width:17.295" aria-label="W">
   <g transform="translate(-100.24 -154.51)">
    <rect x="110.64" y="234.3" width="22.622" height="22.622" rx="5.8839" ry="5.8839" style="fill-rule:evenodd;fill:#4380d1;paint-order:stroke markers fill"/>
    <g aria-label="O">
     <path d="m127.14 245.47q0 1.8108-0.60361 3.1649-0.58731 1.3377-1.8108 2.0882-1.2235 0.75044-3.1323 0.75044-1.8924 0-3.1323-0.75044-1.2235-0.75043-1.8272-2.1045-0.5873-1.354-0.5873-3.1649 0-1.8108 0.5873-3.1486 0.60361-1.3377 1.8272-2.0719 1.2399-0.75044 3.1486-0.75044 1.8924 0 3.116 0.75044 1.2235 0.73412 1.8108 2.0882 0.60361 1.3377 0.60361 3.1486zm-8.4995 0q0 1.8272 0.7015 2.8876 0.70149 1.0441 2.2513 1.0441 1.5824 0 2.2676-1.0441 0.68518-1.0604 0.68518-2.8876 0-1.8435-0.68518-2.8876-0.68519-1.0441-2.2513-1.0441-1.5661 0-2.2676 1.0441-0.7015 1.0441-0.7015 2.8876z"/>
    </g>
   </g>
  </g>
 </g>
</svg>
