<?xml version="1.0" encoding="UTF-8"?>
<!-- Created with Inkscape (http://www.inkscape.org/) -->
<svg width="35.556mm" height="38.835mm" version="1.1" viewBox="0 0 35.556 38.835" xmlns="http://www.w3.org/2000/svg">
 <path d="m7.9164 0c-2.3415 0-4.2262 1.885-4.2262 4.2265v30.382c0 2.3415 1.8848 4.2265 4.2262 4.2265h23.413c2.3415 0 4.2265-1.885 4.2265-4.2265v-26.022l-8.5865-8.5865z" style="fill-rule:evenodd;fill:#bfd5f3;paint-order:normal"/>
 <path d="m26.969 0v8.5865h8.5865" style="fill-rule:evenodd;fill:#9dbfed;paint-order:normal"/>
 <rect y="10.129" width="22.622" height="22.622" rx="5.8839" ry="5.8839" style="fill-rule:evenodd;fill:#3878cd;paint-order:stroke markers fill"/>
 <g transform="translate(234.42 -44.542)">
  <circle cx="-228.09" cy="62.534" r="1.9044" style="fill-rule:evenodd;fill:#fff"/>
  <path d="m-218.76 65.379c-0.13579 0.0154-0.26234 0.0764-0.35894 0.17306l-3.97 3.9698c-0.2479 0.24785-0.64629 0.25871-0.90732 0.0248l-1.6804-1.5049c-0.26156-0.25438-0.57428-0.22333-0.79851-2e-3l-3.604 3.4975c-0.21496 0.20717-0.31688 0.41328-0.22632 0.64082 0.10041 0.25225 0.29268 0.28753 0.48497 0.28753h12.939c0.56128-1.2e-4 1.0163-0.45509 1.0164-1.0164v-3.0895c4e-5 -0.26032-0.10336-0.50998-0.28745-0.69404l-2.1128-2.1126c-0.12989-0.12994-0.3119-0.19364-0.49447-0.17307z" style="fill-rule:evenodd;fill:#fff"/>
 </g>
</svg>
