<?xml version="1.0" encoding="UTF-8"?>
<!-- Created with Inkscape (http://www.inkscape.org/) -->
<svg width="22.622mm" height="22.622mm" version="1.1" viewBox="0 0 22.622 22.622" xmlns="http://www.w3.org/2000/svg">
 <g transform="translate(-10.407 -79.792)">
  <g style="fill-rule:evenodd;fill:#fff;paint-order:stroke markers fill;stroke-linecap:round;stroke-linejoin:round;stroke-width:17.295" aria-label="W">
   <g transform="translate(-100.24 -154.51)">
    <g transform="translate(89.522 -90.023)">
     <rect x="21.121" y="324.32" width="22.622" height="22.622" rx="5.8839" ry="5.8839" style="fill-rule:evenodd;fill:#4984d2;paint-order:stroke markers fill"/>
     <circle cx="27.448" cy="332.19" r="1.9044" style="fill-rule:evenodd;fill:#fff"/>
     <path d="m36.781 335.03c-0.13579 0.0154-0.26234 0.0764-0.35894 0.17306l-3.97 3.9698c-0.2479 0.24785-0.64629 0.25871-0.90732 0.0248l-1.6804-1.5049c-0.26156-0.25438-0.57428-0.22333-0.79851-2e-3l-3.604 3.4975c-0.21496 0.20717-0.31688 0.41328-0.22632 0.64082 0.10041 0.25225 0.29268 0.28753 0.48497 0.28753h12.939c0.56128-1.2e-4 1.0163-0.45509 1.0164-1.0164v-3.0895c4.1e-5 -0.26032-0.10336-0.50998-0.28745-0.69404l-2.1128-2.1126c-0.12989-0.12994-0.3119-0.19364-0.49446-0.17307z" style="fill-rule:evenodd;fill:#fff"/>
    </g>
   </g>
  </g>
 </g>
</svg>
