<?xml version="1.0" encoding="UTF-8"?>
<!-- Created with Inkscape (http://www.inkscape.org/) -->
<svg width="35.556mm" height="38.835mm" version="1.1" viewBox="0 0 35.556 38.835" xmlns="http://www.w3.org/2000/svg">
 <g transform="translate(42.853 -103.69)">
  <path d="m-34.936 103.69c-2.3415 0-4.2262 1.885-4.2262 4.2265v30.382c0 2.3415 1.8847 4.2265 4.2262 4.2265h23.413c2.3415 0 4.2265-1.885 4.2265-4.2265v-26.022l-8.5865-8.5865z" style="fill-rule:evenodd;fill:#eaccae;paint-order:normal"/>
  <path d="m-15.883 103.69v8.5865h8.5865" style="fill-rule:evenodd;fill:#dbb476;paint-order:normal"/>
  <path d="m-17.492 118.3v5.4526h5.4526a5.4526 5.4526 0 0 0-5.4526-5.4526z" style="fill-rule:evenodd;fill:#dcb486"/>
  <path d="m-18.734 119.54a5.4526 5.4526 0 0 0-5.4526 5.4526 5.4526 5.4526 0 0 0 5.4526 5.4526 5.4526 5.4526 0 0 0 5.4526-5.4526h-5.4526z" style="fill-rule:evenodd;fill:#dcb486"/>
  <rect x="-42.853" y="113.68" width="22.622" height="22.622" rx="5.8839" ry="5.8839" style="fill-rule:evenodd;fill:#c98243"/>
  <path d="m-36.188 119.68c-0.93989 0-1.6966 0.75672-1.6966 1.6966v3.7576c0 0.9399 0.75672 1.6966 1.6966 1.6966h5.8061c0.93989 0 1.6966-0.75671 1.6966-1.6966v-3.7576c0-0.93988-0.75671-1.6966-1.6966-1.6966zm9.0525 3.487v3.517c0 0.93988-0.75671 1.6962-1.6966 1.6962h-5.5654v0.24102c0 0.9399 0.75671 1.6962 1.6966 1.6962h5.8061c0.9399 0 1.6966-0.75633 1.6966-1.6962v-3.7576c0-0.93988-0.75671-1.6966-1.6966-1.6966z" style="fill-rule:evenodd;fill:#fff"/>
 </g>
</svg>
