<?xml version="1.0" encoding="UTF-8"?>
<!-- Created with Inkscape (http://www.inkscape.org/) -->
<svg width="22.622mm" height="22.622mm" version="1.1" viewBox="0 0 22.622 22.622" xmlns="http://www.w3.org/2000/svg">
 <g transform="translate(-10.407 -79.792)">
  <g style="fill-rule:evenodd;fill:#fff;paint-order:stroke markers fill;stroke-linecap:round;stroke-linejoin:round;stroke-width:17.295" aria-label="W">
   <g transform="translate(-100.24 -154.51)">
    <rect x="110.64" y="234.3" width="22.622" height="22.622" rx="5.8839" ry="5.8839" style="fill-rule:evenodd;fill:#c98343"/>
    <path d="m117.31 240.29c-0.93989 0-1.6966 0.75672-1.6966 1.6966v3.7576c0 0.9399 0.75672 1.6966 1.6966 1.6966h5.8061c0.93989 0 1.6966-0.75671 1.6966-1.6966v-3.7576c0-0.93988-0.75671-1.6966-1.6966-1.6966zm9.0525 3.487v3.517c0 0.93988-0.75671 1.6962-1.6966 1.6962h-5.5654v0.24102c0 0.9399 0.75671 1.6962 1.6966 1.6962h5.8061c0.9399 0 1.6966-0.75633 1.6966-1.6962v-3.7576c0-0.93988-0.75671-1.6966-1.6966-1.6966z" style="fill-rule:evenodd;fill:#fff"/>
   </g>
  </g>
 </g>
</svg>
