<?xml version="1.0" encoding="UTF-8"?>
<!-- Created with Inkscape (http://www.inkscape.org/) -->
<svg width="35.556mm" height="38.835mm" version="1.1" viewBox="0 0 35.556 38.835" xmlns="http://www.w3.org/2000/svg">
 <path d="m7.9164 0c-2.3415 0-4.2262 1.885-4.2262 4.2265v30.382c0 2.3415 1.8847 4.2265 4.2262 4.2265h23.413c2.3415 0 4.2265-1.885 4.2265-4.2265v-26.022l-8.5865-8.5865z" style="fill-rule:evenodd;fill:#c9d2e1;paint-order:normal"/>
 <rect x="3.5527e-15" y="10.129" width="22.622" height="22.622" rx="5.8839" ry="5.8839" style="fill-rule:evenodd;fill:#6d85a7;paint-order:stroke markers fill"/>
 <path d="m14.16 15.76c-0.42991-0.2482-0.9761-0.10185-1.2243 0.32806l-0.56157 0.97267c-0.70516-0.16872-1.4335-0.16138-2.1228 6e-3l-0.56525-0.97886c-0.2482-0.42991-0.79412-0.57634-1.224-0.32813l-0.64506 0.37268c-0.42992 0.24822-0.57635 0.79412-0.32815 1.224l0.56137 0.9723c-0.24356 0.25393-0.46057 0.54014-0.64361 0.85716-0.18287 0.31673-0.32182 0.6474-0.4199 0.9849h-1.1227c-0.4964 0-0.89596 0.39977-0.89595 0.89618l-2.4e-4 0.745c0 0.49641 0.39978 0.89596 0.89619 0.89597l1.1304 8e-5c0.19975 0.68043 0.55757 1.3148 1.0563 1.841l-0.56199 0.97339c-0.24821 0.42991-0.10164 0.97575 0.32827 1.224l0.6452 0.37251c0.42991 0.2482 0.97554 0.102 1.2237-0.3279l0.56178-0.97303c0.70522 0.16906 1.434 0.16204 2.1233-6e-3l0.56473 0.97809c0.2482 0.42991 0.7941 0.57634 1.224 0.32814l0.64543-0.37249c0.4299-0.24821 0.57634-0.79411 0.32813-1.224l-0.56136-0.9723c0.24319-0.25373 0.45977-0.53956 0.64264-0.8563 0.18303-0.31703 0.32268-0.6479 0.42087-0.98576h1.1227c0.49642 0 0.89597-0.39977 0.89597-0.89619l-1.3e-4 -0.74519c-1e-5 -0.49642-0.39942-0.89577-0.89582-0.89576l-1.1298-2.4e-4c-0.1996-0.68076-0.5579-1.3155-1.0569-1.8418l0.56136-0.97231c0.24821-0.4299 0.10222-0.9759-0.32769-1.2241zm-1.6907 3.6731a2.3167 2.3167 0 0 1 0.84805 3.165 2.3167 2.3167 0 0 1-3.1648 0.84769 2.3167 2.3167 0 0 1-0.84789-3.1644 2.3167 2.3167 0 0 1 3.1646-0.84826z" style="fill-rule:evenodd;fill:#feffff"/>
 <path d="m26.969 0v8.5865h8.5865" style="fill-rule:evenodd;fill:#9bacc5;paint-order:normal"/>
</svg>
