<?xml version="1.0" encoding="UTF-8"?>
<!-- Created with Inkscape (http://www.inkscape.org/) -->
<svg width="35.556mm" height="38.835mm" version="1.1" viewBox="0 0 35.556 38.835" xmlns="http://www.w3.org/2000/svg">
 <g transform="translate(-48.778 -30.788)">
  <path d="m56.694 30.788c-2.3415 0-4.2262 1.885-4.2262 4.2265v30.382c0 2.3415 1.8847 4.2265 4.2262 4.2265h23.413c2.3415 0 4.2265-1.885 4.2265-4.2265v-26.022l-8.5865-8.5865z" style="fill-rule:evenodd;fill:#acdccc;paint-order:normal"/>
  <rect x="66.562" y="47.729" width="4.8367" height="2.8165" rx="0" ry="0" style="fill:none;paint-order:normal;stroke-linecap:round;stroke-linejoin:round;stroke-width:1.7292;stroke:#67b49c"/>
  <rect x="73.92" y="47.729" width="4.8367" height="2.8165" rx="0" ry="0" style="fill:none;paint-order:normal;stroke-linecap:round;stroke-linejoin:round;stroke-width:1.7292;stroke:#67b49c"/>
  <rect x="66.562" y="53.276" width="4.8367" height="2.8165" rx="0" ry="0" style="fill:none;paint-order:normal;stroke-linecap:round;stroke-linejoin:round;stroke-width:1.7292;stroke:#67b49c"/>
  <rect x="73.92" y="53.276" width="4.8367" height="2.8165" rx="0" ry="0" style="fill:none;paint-order:normal;stroke-linecap:round;stroke-linejoin:round;stroke-width:1.7292;stroke:#67b49c"/>
  <path d="m75.747 30.788v8.5865h8.5864" style="fill-rule:evenodd;fill:#76bca6;paint-order:normal"/>
  <rect x="48.778" y="40.916" width="22.622" height="22.622" rx="5.8839" ry="5.8839" style="fill-rule:evenodd;fill:#228b6a;paint-order:stroke markers fill"/>
  <text x="54.532742" y="57.916016" style="fill-rule:evenodd;fill:#ffffff;font-family:'Noto Sans';font-size:16.314px;font-weight:bold;paint-order:stroke markers fill;stroke-linecap:round;stroke-linejoin:round;stroke-width:17.295" xml:space="preserve"><tspan x="54.532742" y="57.916016" style="fill:#ffffff;stroke-width:17.295">X</tspan></text>
 </g>
</svg>
